<svg xmlns="http://www.w3.org/2000/svg"
    xmlns:xlink="http://www.w3.org/1999/xlink" preserveAspectRatio="xMidYMid meet" version="1.0" viewBox="0.0 0.0 32.0 32.0" zoomAndPan="magnify" style="fill: rgb(31, 19, 18);" original_string_length="844">
    <g id="__id144_sczbgdg828">
        <path d="M16,0C7.178,0,0,7.178,0,16s7.178,16,16,16s16-7.178,16-16S24.822,0,16,0z M7.014,26.721C7.163,21.888,11.131,18,16,18 s8.837,3.888,8.986,8.721C22.552,28.764,19.419,30,16,30S9.448,28.764,7.014,26.721z M11,11c0-2.757,2.243-5,5-5s5,2.243,5,5 s-2.243,5-5,5S11,13.757,11,11z M26.794,24.905c-0.724-3.738-3.346-6.798-6.819-8.151C21.8,15.49,23,13.383,23,11 c0-3.859-3.141-7-7-7s-7,3.141-7,7c0,2.383,1.2,4.49,3.025,5.755c-3.473,1.353-6.095,4.413-6.82,8.151C3.204,22.484,2,19.38,2,16 C2,8.28,8.28,2,16,2s14,6.28,14,14C30,19.38,28.796,22.484,26.794,24.905z" style="fill: inherit;"/>
    </g>
</svg>